<svg version="1.0" xmlns="http://www.w3.org/2000/svg"
 width="350.000000pt" height="200.000000pt" viewBox="0 0 350.000000 200.000000"
 preserveAspectRatio="xMidYMid meet">

  <g transform="translate(0.000000,200.000000) scale(0.100000,-0.100000)"
  fill="#1e3a8a" stroke="none">
    <path d="M0 1000 l0 -1000 1750 0 1750 0 0 1000 0 1000 -1750 0 -1750 0 0
    -1000z m1442 833 c23 -27 98 -193 98 -217 0 -28 -9 -40 -41 -57 l-27 -14 62
    -126 61 -127 28 10 c55 19 70 6 120 -102 48 -103 56 -140 34 -158 -22 -18
    -740 -352 -757 -352 -9 0 -25 8 -34 19 -28 31 -104 210 -99 232 3 11 18 26 34
    35 16 8 29 18 29 22 0 4 -26 62 -57 130 -45 96 -61 121 -73 116 -32 -14 -76
    -16 -87 -2 -5 7 -31 60 -57 116 -43 94 -46 106 -33 125 15 24 727 365 763 366
    11 1 28 -7 36 -16z m1728 -239 c19 -8 46 -25 59 -37 28 -26 60 -92 61 -124 0
    -22 -4 -23 -68 -23 l-68 0 -12 33 c-15 42 -47 57 -116 57 -93 0 -136 -57 -76
    -102 14 -10 67 -29 118 -43 145 -39 206 -79 231 -154 32 -97 -9 -193 -104
    -244 -34 -19 -56 -22 -150 -22 -94 0 -116 3 -150 22 -66 35 -106 91 -120 166
    -7 36 -6 37 21 37 16 0 45 3 64 6 34 5 36 4 58 -44 19 -43 29 -53 67 -67 91
    -35 185 5 185 79 0 45 -18 57 -138 90 -125 34 -178 61 -207 105 -76 117 -11
    250 138 281 53 11 161 2 207 -16z m-1170 -319 l0 -335 -65 0 -65 0 0 335 0
    335 65 0 65 0 0 -335z m569 303 c33 -18 52 -36 69 -71 34 -65 25 -123 -26
    -176 l-37 -39 38 -22 c44 -25 77 -85 77 -140 0 -78 -62 -159 -138 -180 -20 -5
    -124 -10 -229 -10 l-193 0 0 328 c0 181 3 332 8 337 4 4 92 5 196 2 172 -6
    194 -8 235 -29z m-1883 -449 c12 -23 20 -29 35 -25 10 3 27 9 37 12 15 4 23
    -5 39 -44 l21 -50 -29 -12 c-28 -12 -29 -15 -23 -60 6 -43 4 -50 -17 -64 -51
    -33 -458 -216 -482 -216 -32 0 -36 6 -92 128 -43 95 -46 105 -32 125 19 29
    450 235 494 236 27 1 35 -5 49 -30z m873 -624 c30 -15 81 -70 81 -86 0 -5
    -162 -9 -400 -9 -220 0 -400 3 -400 6 0 15 46 68 74 85 29 17 54 19 324 19
    238 0 298 -3 321 -15z m212 -215 c26 -15 26 -75 0 -90 -13 -6 -198 -10 -532
    -10 -463 0 -514 2 -531 17 -22 20 -23 51 -1 75 15 17 45 18 530 18 335 0 521
    -4 534 -10z"/>
    <path d="M1085 1556 c-144 -60 -226 -99 -223 -107 2 -4 59 -130 128 -279 110
    -239 127 -270 145 -266 51 12 259 119 294 151 84 76 94 200 28 336 -47 97 -85
    141 -149 173 -71 36 -124 34 -223 -8z m201 -130 c49 -54 94 -159 94 -220 0
    -60 -28 -92 -118 -133 -41 -19 -75 -33 -76 -31 -11 15 -166 358 -166 365 0 9
    62 40 130 67 8 3 33 4 55 1 32 -3 48 -12 81 -49z"/>
    <path d="M2270 1414 l0 -76 105 4 c92 3 107 6 126 25 30 30 30 80 0 105 -19
    15 -41 18 -127 18 l-104 0 0 -76z"/>
    <path d="M2270 1140 l0 -92 116 4 c112 3 117 4 140 31 31 36 31 78 0 114 -23
    27 -28 28 -140 31 l-116 4 0 -92z"/>
  </g>
</svg>
